<svg data-v-fde0c5aa="" xmlns="http://www.w3.org/2000/svg" viewBox="0 0 300 300" class="iconAbove"><!----><defs data-v-fde0c5aa=""><!----></defs><rect data-v-fde0c5aa="" fill="#FBF3EF" x="0" y="0" width="300px" height="300px" class="logo-background-square"></rect><defs data-v-fde0c5aa=""><!----></defs><g data-v-fde0c5aa="" id="7c92d3b1-2a2e-4373-9e3c-ea7ea1d7a260" fill="#2F190E" transform="matrix(4.28406666474329,0,0,4.28406666474329,14.644916669070888,167.3753500027248)"><path d="M11.66 3.92L8.67 3.92L6.48 11.80L4.30 3.92L1.25 3.92L1.25 13.58L3.18 13.58L3.18 9.11C3.18 8.11 3.18 6.83 3.15 5.82C3.37 6.82 3.72 8.11 4.02 9.09L5.40 13.58L7.50 13.58L8.86 9.10C9.17 8.11 9.52 6.82 9.76 5.81C9.73 6.82 9.73 8.11 9.73 9.11L9.73 13.58L11.66 13.58ZM17.77 13.58L19.66 13.58C19.54 12.75 19.52 12.25 19.52 11.69L19.52 9.28C19.52 8.88 19.50 8.48 19.47 8.13C19.36 6.85 18.58 5.94 16.49 5.94C14.71 5.94 13.36 6.89 13.30 8.57L15.18 8.55C15.23 7.74 15.65 7.29 16.42 7.29C17.18 7.29 17.51 7.67 17.57 8.19C17.60 8.44 17.60 8.67 17.60 8.89L17.60 9.04L17.12 9.04C14.42 9.04 13.02 9.97 13.02 11.61C13.02 13.02 14.13 13.78 15.41 13.78C16.11 13.78 16.74 13.64 17.26 13.29L17.63 12.49ZM16.16 12.42C15.47 12.42 15.02 12.11 15.02 11.45C15.02 10.47 16.06 10.12 17.60 10.23L17.60 10.84C17.60 11.87 16.94 12.42 16.16 12.42ZM25.34 9.81L27.92 6.13L25.69 6.13L24.22 8.61L22.74 6.13L20.48 6.13L23.02 9.80L20.38 13.58L22.60 13.58L24.16 11.00L25.69 13.58L27.94 13.58ZM34.89 8.37C35.85 8.04 36.39 7.38 36.39 6.38C36.39 5.08 35.52 4.17 33.95 3.98C33.47 3.92 33.19 3.92 32.70 3.92L29.25 3.92L29.25 13.58L32.76 13.58C33.31 13.58 33.61 13.58 34.10 13.52C35.39 13.34 36.75 12.49 36.75 10.70C36.75 9.45 36.13 8.69 34.89 8.37ZM31.18 5.43L32.58 5.43C32.80 5.43 33.05 5.45 33.28 5.47C33.92 5.56 34.37 5.91 34.37 6.64C34.37 7.34 34.02 7.73 33.32 7.84C33.10 7.87 32.87 7.88 32.63 7.88L31.18 7.88ZM33.50 12.04C33.32 12.05 33.08 12.05 32.86 12.05L31.18 12.05L31.18 9.32L32.79 9.32C33.01 9.32 33.24 9.34 33.47 9.37C34.17 9.44 34.72 9.81 34.72 10.71C34.72 11.52 34.17 11.98 33.50 12.04ZM42.41 13.58L44.30 13.58C44.18 12.75 44.16 12.25 44.16 11.69L44.16 9.28C44.16 8.88 44.14 8.48 44.11 8.13C44.00 6.85 43.22 5.94 41.13 5.94C39.35 5.94 38.00 6.89 37.94 8.57L39.82 8.55C39.87 7.74 40.29 7.29 41.06 7.29C41.82 7.29 42.15 7.67 42.21 8.19C42.24 8.44 42.24 8.67 42.24 8.89L42.24 9.04L41.76 9.04C39.06 9.04 37.66 9.97 37.66 11.61C37.66 13.02 38.77 13.78 40.05 13.78C40.75 13.78 41.38 13.64 41.90 13.29L42.27 12.49ZM40.80 12.42C40.11 12.42 39.66 12.11 39.66 11.45C39.66 10.47 40.70 10.12 42.24 10.23L42.24 10.84C42.24 11.87 41.58 12.42 40.80 12.42ZM52.89 8.02C52.74 6.72 51.83 5.94 50.25 5.94C49.53 5.94 48.99 6.08 48.45 6.45L47.88 7.34L47.88 6.13L45.95 6.13L45.95 13.58L47.88 13.58L47.88 10.18C47.88 8.11 48.62 7.29 49.56 7.29C50.50 7.29 50.93 7.83 50.99 8.61C51.02 8.99 51.02 9.34 51.02 9.65L51.02 13.58L52.95 13.58L52.95 9.38C52.95 8.78 52.93 8.40 52.89 8.02ZM57.19 10.64L59.50 13.58L61.94 13.58L58.59 9.59L61.89 6.13L59.57 6.13L56.57 9.53L56.57 3.29L54.64 3.29L54.64 13.58L56.57 13.58L56.57 11.31Z"></path></g><defs data-v-fde0c5aa=""><linearGradient data-v-fde0c5aa="" gradientTransform="rotate(25)" id="99640f1d-6526-4b26-bd96-5f5a66ac2c17" x1="0%" y1="0%" x2="100%" y2="0%"><stop data-v-fde0c5aa="" offset="0%" stop-color="#A92580" stop-opacity="1"></stop><stop data-v-fde0c5aa="" offset="100%" stop-color="#F7BC00" stop-opacity="1"></stop></linearGradient></defs><g data-v-fde0c5aa="" id="09f362a2-6a6d-4851-88e7-84c84a1181d6" stroke="none" fill="url(#99640f1d-6526-4b26-bd96-5f5a66ac2c17)" transform="matrix(2.8087411457882543,0,0,2.8087411457882543,105.06014166738794,73.5902125010819)"><path d="M0 32h32V0H0v32zM2.038 2.038h27.923v27.923H2.038V2.038z"></path><path d="M4.038 27.962h23.923V4.038H4.038v23.924zM21.049 8.25h3.402v3.402h-3.402V8.25zm0 6.049h3.402v3.402h-3.402v-3.402zm0 6.049h3.402v3.402h-3.402v-3.402zM14.299 8.25h3.402v3.402h-3.402V8.25zm0 6.049h3.402v3.402h-3.402v-3.402zm0 6.049h3.402v3.402h-3.402v-3.402zM7.549 8.25h3.402v3.402H7.549V8.25zm0 6.049h3.402v3.402H7.549v-3.402zm0 6.049h3.402v3.402H7.549v-3.402z"></path></g><!----></svg>